Stretch Light Narrow Cy Sc vv(-6.4-0.0)-(110.0-100.0)-0.0-0.0-(0.0-0.0).ufo
<glyph name="chedescenderabkhasian-cy.sc" format="1">
  <advance width="1281"/>
  <outline>
    <contour>
      <point x="1183" y="46" type="curve"/>
      <point x="1189" y="302" type="line"/>
      <point x="1082" y="304" type="line"/>
      <point x="1050" y="162" type="line"/>
      <point x="1007" y="116"/>
      <point x="933" y="72"/>
      <point x="789" y="72" type="curve" smooth="yes"/>
      <point x="561" y="72"/>
      <point x="438" y="330"/>
      <point x="436" y="624" type="curve"/>
      <point x="1209" y="622" type="line"/>
      <point x="1216" y="658"/>
      <point x="1218" y="716"/>
      <point x="1218" y="794" type="curve" smooth="yes"/>
      <point x="1217" y="1124"/>
      <point x="1042" y="1306"/>
      <point x="799" y="1306" type="curve" smooth="yes"/>
      <point x="523" y="1306"/>
      <point x="303" y="1072"/>
      <point x="276" y="712" type="curve"/>
      <point x="161" y="714"/>
      <point x="132" y="768"/>
      <point x="132" y="816" type="curve" smooth="yes"/>
      <point x="132" y="848"/>
      <point x="155" y="916"/>
      <point x="167" y="932" type="curve"/>
      <point x="50" y="954" type="line"/>
      <point x="32" y="942"/>
      <point x="0" y="866"/>
      <point x="0" y="810" type="curve" smooth="yes"/>
      <point x="0" y="682"/>
      <point x="126" y="622"/>
      <point x="273" y="620" type="curve"/>
      <point x="276" y="240"/>
      <point x="463" y="-14"/>
      <point x="753" y="-20" type="curve"/>
      <point x="769" y="-52"/>
      <point x="795" y="-112"/>
      <point x="795" y="-170" type="curve" smooth="yes"/>
      <point x="795" y="-276"/>
      <point x="752" y="-294"/>
      <point x="674" y="-294" type="curve" smooth="yes"/>
      <point x="659" y="-294"/>
      <point x="621" y="-288"/>
      <point x="601" y="-280" type="curve"/>
      <point x="599" y="-392" type="line"/>
      <point x="628" y="-404"/>
      <point x="679" y="-414"/>
      <point x="714" y="-414" type="curve" smooth="yes"/>
      <point x="841" y="-414"/>
      <point x="916" y="-372"/>
      <point x="922" y="-248" type="curve" smooth="yes"/>
      <point x="925" y="-154"/>
      <point x="870" y="-60"/>
      <point x="834" y="-18" type="curve"/>
      <point x="1012" y="-6"/>
      <point x="1103" y="44"/>
    </contour>
    <contour>
      <point x="1047" y="712" type="curve"/>
      <point x="434" y="712" type="line"/>
      <point x="444" y="1074"/>
      <point x="597" y="1210"/>
      <point x="765" y="1210" type="curve" smooth="yes"/>
      <point x="971" y="1210"/>
      <point x="1052" y="994"/>
      <point x="1052" y="804" type="curve" smooth="yes"/>
      <point x="1053" y="772"/>
      <point x="1051" y="742"/>
    </contour>
  </outline>
</glyph>
<glyph name="dje-cy.sc" format="1">
  <advance width="1349"/>
  <outline>
    <contour>
      <point x="539" y="-144" type="move" name="mark0"/>
    </contour>
    <contour>
      <point x="659" y="672" type="curve"/>
      <point x="659" y="1208" type="line"/>
      <point x="986" y="1192" type="line"/>
      <point x="1019" y="884" type="line"/>
      <point x="1120" y="884" type="line"/>
      <point x="1120" y="1292" type="line"/>
      <point x="77" y="1292" type="line"/>
      <point x="55" y="884" type="line"/>
      <point x="158" y="884" type="line"/>
      <point x="203" y="1192" type="line"/>
      <point x="492" y="1208" type="line"/>
      <point x="492" y="100" type="line"/>
      <point x="275" y="82" type="line"/>
      <point x="275" y="0" type="line"/>
      <point x="836" y="0" type="line"/>
      <point x="836" y="82" type="line"/>
      <point x="659" y="98" type="line"/>
      <point x="659" y="586" type="line"/>
      <point x="736" y="624"/>
      <point x="806" y="640"/>
      <point x="892" y="640" type="curve" smooth="yes"/>
      <point x="1072" y="640"/>
      <point x="1130" y="522"/>
      <point x="1130" y="286" type="curve" smooth="yes"/>
      <point x="1130" y="-58"/>
      <point x="1061" y="-246"/>
      <point x="890" y="-246" type="curve" smooth="yes"/>
      <point x="853" y="-246"/>
      <point x="825" y="-242"/>
      <point x="812" y="-240" type="curve"/>
      <point x="815" y="-330" type="line"/>
      <point x="833" y="-340"/>
      <point x="885" y="-346"/>
      <point x="916" y="-346" type="curve" smooth="yes"/>
      <point x="1161" y="-346"/>
      <point x="1295" y="-66"/>
      <point x="1295" y="304" type="curve" smooth="yes"/>
      <point x="1295" y="560"/>
      <point x="1223" y="742"/>
      <point x="931" y="742" type="curve" smooth="yes"/>
      <point x="863" y="742"/>
      <point x="721" y="716"/>
    </contour>
  </outline>
</glyph>
<glyph name="dzhe-cy.sc" format="1">
  <advance width="1301"/>
  <outline>
    <contour>
      <point x="744" y="0" type="curve"/>
      <point x="1222" y="0" type="line"/>
      <point x="1222" y="80" type="line"/>
      <point x="1080" y="96" type="line"/>
      <point x="1080" y="1192" type="line"/>
      <point x="1207" y="1210" type="line"/>
      <point x="1207" y="1292" type="line"/>
      <point x="783" y="1292" type="line"/>
      <point x="783" y="1210" type="line"/>
      <point x="919" y="1192" type="line"/>
      <point x="919" y="94" type="line"/>
      <point x="380" y="94" type="line"/>
      <point x="380" y="1192" type="line"/>
      <point x="533" y="1210" type="line"/>
      <point x="533" y="1292" type="line"/>
      <point x="87" y="1292" type="line"/>
      <point x="87" y="1210" type="line"/>
      <point x="221" y="1192" type="line"/>
      <point x="221" y="98" type="line"/>
      <point x="80" y="80" type="line"/>
      <point x="80" y="0" type="line"/>
      <point x="575" y="0" type="line"/>
      <point x="578" y="-4"/>
      <point x="606" y="-302"/>
      <point x="606" y="-320" type="curve"/>
      <point x="714" y="-320" type="line"/>
      <point x="722" y="-208"/>
      <point x="734" y="-92"/>
    </contour>
  </outline>
</glyph>
<glyph name="e-cy.sc" format="1">
  <advance width="1068"/>
  <outline>
    <contour>
      <point x="630" y="0" type="move" name="mark0"/>
    </contour>
    <contour>
      <point x="963" y="46" type="curve"/>
      <point x="999" y="300" type="line"/>
      <point x="903" y="308" type="line"/>
      <point x="836" y="132" type="line"/>
      <point x="795" y="98"/>
      <point x="747" y="72"/>
      <point x="623" y="72" type="curve" smooth="yes"/>
      <point x="385" y="72"/>
      <point x="264" y="328"/>
      <point x="250" y="610" type="curve"/>
      <point x="788" y="594" type="line"/>
      <point x="788" y="728" type="line"/>
      <point x="250" y="712" type="line"/>
      <point x="263" y="1034"/>
      <point x="417" y="1216"/>
      <point x="620" y="1216" type="curve" smooth="yes"/>
      <point x="745" y="1216"/>
      <point x="797" y="1190"/>
      <point x="832" y="1164" type="curve"/>
      <point x="872" y="956" type="line"/>
      <point x="976" y="956" type="line"/>
      <point x="988" y="1250" type="line"/>
      <point x="921" y="1262"/>
      <point x="790" y="1306"/>
      <point x="640" y="1306" type="curve" smooth="yes"/>
      <point x="307" y="1306"/>
      <point x="60" y="1034"/>
      <point x="60" y="648" type="curve" smooth="yes"/>
      <point x="60" y="250"/>
      <point x="267" y="-20"/>
      <point x="615" y="-20" type="curve" smooth="yes"/>
      <point x="810" y="-20"/>
      <point x="878" y="42"/>
    </contour>
  </outline>
</glyph>
<glyph name="elhook-cy.sc" format="1">
  <advance width="1191"/>
  <outline>
    <contour>
      <point x="974" y="478" type="curve" smooth="yes"/>
      <point x="974" y="1192" type="line"/>
      <point x="1125" y="1210" type="line"/>
      <point x="1125" y="1292" type="line"/>
      <point x="200" y="1292" type="line"/>
      <point x="200" y="1210" type="line"/>
      <point x="384" y="1192" type="line"/>
      <point x="384" y="1044" type="line" smooth="yes"/>
      <point x="384" y="588"/>
      <point x="338" y="324"/>
      <point x="259" y="196" type="curve"/>
      <point x="233" y="150"/>
      <point x="205" y="130"/>
      <point x="163" y="130" type="curve" smooth="yes"/>
      <point x="100" y="130"/>
      <point x="64" y="134"/>
      <point x="42" y="138" type="curve"/>
      <point x="52" y="0" type="line"/>
      <point x="74" y="-4"/>
      <point x="116" y="-10"/>
      <point x="167" y="-10" type="curve" smooth="yes"/>
      <point x="244" y="-10"/>
      <point x="301" y="28"/>
      <point x="348" y="114" type="curve" smooth="yes"/>
      <point x="435" y="272"/>
      <point x="481" y="602"/>
      <point x="481" y="1028" type="curve" smooth="yes"/>
      <point x="481" y="1192" type="line"/>
      <point x="815" y="1192" type="line"/>
      <point x="812" y="424" type="line" smooth="yes"/>
      <point x="810" y="176"/>
      <point x="807" y="86"/>
      <point x="778" y="-14" type="curve" smooth="yes"/>
      <point x="742" y="-134"/>
      <point x="658" y="-210"/>
      <point x="566" y="-238" type="curve"/>
      <point x="607" y="-306" type="line"/>
      <point x="759" y="-278"/>
      <point x="914" y="-168"/>
      <point x="956" y="34" type="curve"/>
      <point x="970" y="124"/>
      <point x="974" y="286"/>
    </contour>
  </outline>
</glyph>
<glyph name="enhook-cy.sc" format="1">
  <advance width="1341"/>
  <outline>
    <contour>
      <point x="669" y="-144" type="move" name="mark0"/>
    </contour>
    <contour>
      <point x="1129" y="450" type="curve" smooth="yes"/>
      <point x="1129" y="1192" type="line"/>
      <point x="1266" y="1210" type="line"/>
      <point x="1266" y="1292" type="line"/>
      <point x="834" y="1292" type="line"/>
      <point x="834" y="1210" type="line"/>
      <point x="967" y="1192" type="line"/>
      <point x="967" y="714" type="line"/>
      <point x="382" y="714" type="line"/>
      <point x="382" y="1192" type="line"/>
      <point x="521" y="1210" type="line"/>
      <point x="521" y="1292" type="line"/>
      <point x="90" y="1292" type="line"/>
      <point x="90" y="1210" type="line"/>
      <point x="220" y="1192" type="line"/>
      <point x="220" y="96" type="line"/>
      <point x="86" y="80" type="line"/>
      <point x="86" y="0" type="line"/>
      <point x="522" y="0" type="line"/>
      <point x="522" y="80" type="line"/>
      <point x="382" y="96" type="line"/>
      <point x="382" y="612" type="line"/>
      <point x="966" y="612" type="line"/>
      <point x="966" y="396" type="line" smooth="yes"/>
      <point x="966" y="124"/>
      <point x="964" y="20"/>
      <point x="932" y="-64" type="curve"/>
      <point x="894" y="-154"/>
      <point x="813" y="-214"/>
      <point x="720" y="-238" type="curve"/>
      <point x="758" y="-310" type="line"/>
      <point x="909" y="-284"/>
      <point x="1069" y="-186"/>
      <point x="1111" y="-24" type="curve"/>
      <point x="1130" y="88"/>
      <point x="1129" y="212"/>
    </contour>
  </outline>
</glyph>
<glyph name="ereversed-cy.sc" format="1">
  <advance width="1121"/>
  <outline>
    <contour>
      <point x="585" y="1272" type="move" name="top"/>
    </contour>
    <contour>
      <point x="142" y="1240" type="curve"/>
      <point x="139" y="970" type="line"/>
      <point x="249" y="970" type="line"/>
      <point x="291" y="1132" type="line"/>
      <point x="329" y="1168"/>
      <point x="381" y="1216"/>
      <point x="509" y="1216" type="curve" smooth="yes"/>
      <point x="742" y="1216"/>
      <point x="852" y="980"/>
      <point x="872" y="714" type="curve"/>
      <point x="337" y="730" type="line"/>
      <point x="337" y="596" type="line"/>
      <point x="876" y="610" type="line"/>
      <point x="872" y="270"/>
      <point x="724" y="74"/>
      <point x="518" y="74" type="curve" smooth="yes"/>
      <point x="388" y="74"/>
      <point x="326" y="118"/>
      <point x="290" y="148" type="curve"/>
      <point x="224" y="312" type="line"/>
      <point x="120" y="292" type="line"/>
      <point x="152" y="46" type="line"/>
      <point x="237" y="46"/>
      <point x="319" y="-20"/>
      <point x="494" y="-20" type="curve" smooth="yes"/>
      <point x="833" y="-20"/>
      <point x="1063" y="246"/>
      <point x="1063" y="636" type="curve" smooth="yes"/>
      <point x="1063" y="1032"/>
      <point x="867" y="1306"/>
      <point x="519" y="1306" type="curve" smooth="yes"/>
      <point x="309" y="1306"/>
      <point x="231" y="1244"/>
    </contour>
  </outline>
</glyph>
<glyph name="ge-cy.sc" format="1">
  <advance width="936"/>
  <outline>
    <contour>
      <point x="577" y="1272" type="move" name="top"/>
    </contour>
    <contour>
      <point x="470" y="648" type="move" name="center"/>
    </contour>
    <contour>
      <point x="260" y="0" type="move" name="bottomright"/>
    </contour>
    <contour>
      <point x="55" y="1292" type="line"/>
      <point x="55" y="1212" type="line"/>
      <point x="227" y="1190" type="line"/>
      <point x="227" y="98" type="line"/>
      <point x="49" y="80" type="line"/>
      <point x="49" y="0" type="line"/>
      <point x="677" y="0" type="line"/>
      <point x="677" y="80" type="line"/>
      <point x="392" y="98" type="line"/>
      <point x="392" y="1208" type="line"/>
      <point x="760" y="1196" type="line"/>
      <point x="804" y="844" type="line"/>
      <point x="908" y="844" type="line"/>
      <point x="898" y="1292" type="line"/>
    </contour>
  </outline>
</glyph>
<glyph name="gedescender-cy.sc" format="1">
  <advance width="930"/>
  <outline>
    <contour>
      <point x="524" y="-144" type="move" name="mark0"/>
    </contour>
    <contour>
      <point x="717" y="98" type="curve"/>
      <point x="392" y="98" type="line"/>
      <point x="392" y="1208" type="line"/>
      <point x="760" y="1196" type="line"/>
      <point x="805" y="844" type="line"/>
      <point x="908" y="844" type="line"/>
      <point x="898" y="1292" type="line"/>
      <point x="55" y="1292" type="line"/>
      <point x="55" y="1212" type="line"/>
      <point x="227" y="1190" type="line"/>
      <point x="227" y="98" type="line"/>
      <point x="49" y="80" type="line"/>
      <point x="49" y="0" type="line"/>
      <point x="554" y="0" type="line"/>
      <point x="560" y="-20"/>
      <point x="575" y="-274"/>
      <point x="575" y="-320" type="curve"/>
      <point x="673" y="-320" type="line"/>
      <point x="676" y="-314"/>
      <point x="717" y="74"/>
    </contour>
  </outline>
</glyph>
<glyph name="gestrokehook-cy.sc" format="1">
  <advance width="945"/>
  <outline>
    <contour>
      <point x="674" y="80" type="curve"/>
      <point x="392" y="98" type="line"/>
      <point x="392" y="578" type="line"/>
      <point x="692" y="578" type="line"/>
      <point x="692" y="668" type="line"/>
      <point x="392" y="668" type="line"/>
      <point x="392" y="1208" type="line"/>
      <point x="760" y="1196" type="line"/>
      <point x="804" y="844" type="line"/>
      <point x="908" y="844" type="line"/>
      <point x="898" y="1292" type="line"/>
      <point x="55" y="1292" type="line"/>
      <point x="55" y="1212" type="line"/>
      <point x="227" y="1190" type="line"/>
      <point x="227" y="668" type="line"/>
      <point x="73" y="668" type="line"/>
      <point x="73" y="578" type="line"/>
      <point x="227" y="578" type="line"/>
      <point x="227" y="98" type="line"/>
      <point x="49" y="80" type="line"/>
      <point x="49" y="0" type="line"/>
      <point x="617" y="0" type="line"/>
      <point x="634" y="-56"/>
      <point x="645" y="-112"/>
      <point x="645" y="-152" type="curve" smooth="yes"/>
      <point x="645" y="-258"/>
      <point x="602" y="-294"/>
      <point x="523" y="-294" type="curve" smooth="yes"/>
      <point x="512" y="-294"/>
      <point x="476" y="-290"/>
      <point x="450" y="-280" type="curve"/>
      <point x="448" y="-392" type="line"/>
      <point x="479" y="-404"/>
      <point x="527" y="-414"/>
      <point x="563" y="-414" type="curve" smooth="yes"/>
      <point x="689" y="-414"/>
      <point x="771" y="-348"/>
      <point x="771" y="-220" type="curve" smooth="yes"/>
      <point x="771" y="-126"/>
      <point x="719" y="-10"/>
    </contour>
  </outline>
</glyph>
<glyph name="gheupturn-cy.sc" format="1">
  <advance width="932"/>
  <outline>
    <contour>
      <point x="537" y="-144" type="move" name="mark0"/>
    </contour>
    <contour>
      <point x="795" y="1598" type="line"/>
      <point x="748" y="1292" type="line"/>
      <point x="68" y="1292" type="line"/>
      <point x="68" y="1212" type="line"/>
      <point x="245" y="1190" type="line"/>
      <point x="245" y="98" type="line"/>
      <point x="65" y="80" type="line"/>
      <point x="65" y="0" type="line"/>
      <point x="693" y="0" type="line"/>
      <point x="693" y="80" type="line"/>
      <point x="410" y="98" type="line"/>
      <point x="410" y="1206" type="line"/>
      <point x="884" y="1198" type="line"/>
      <point x="899" y="1598" type="line"/>
    </contour>
  </outline>
</glyph>
<glyph name="idieresis-cy.sc" format="1">
  <advance width="1374"/>
  <outline>
    <contour>
      <point x="880" y="1486" type="curve"/>
      <point x="957" y="1486"/>
      <point x="991" y="1546"/>
      <point x="991" y="1616" type="curve" smooth="yes"/>
      <point x="991" y="1674"/>
      <point x="958" y="1732"/>
      <point x="896" y="1732" type="curve" smooth="yes"/>
      <point x="825" y="1732"/>
      <point x="790" y="1666"/>
      <point x="790" y="1600" type="curve" smooth="yes"/>
      <point x="790" y="1536"/>
      <point x="825" y="1486"/>
    </contour>
    <contour>
      <point x="506" y="1486" type="curve" smooth="yes"/>
      <point x="582" y="1486"/>
      <point x="616" y="1546"/>
      <point x="616" y="1616" type="curve" smooth="yes"/>
      <point x="616" y="1674"/>
      <point x="583" y="1732"/>
      <point x="520" y="1732" type="curve"/>
      <point x="448" y="1732"/>
      <point x="414" y="1666"/>
      <point x="414" y="1600" type="curve" smooth="yes"/>
      <point x="414" y="1536"/>
      <point x="448" y="1486"/>
    </contour>
    <contour>
      <point x="92" y="1292" type="line"/>
      <point x="92" y="1210" type="line"/>
      <point x="221" y="1192" type="line"/>
      <point x="221" y="96" type="line"/>
      <point x="86" y="80" type="line"/>
      <point x="86" y="0" type="line"/>
      <point x="532" y="0" type="line"/>
      <point x="532" y="80" type="line"/>
      <point x="380" y="98" type="line"/>
      <point x="380" y="162" type="line"/>
      <point x="870" y="802" type="line"/>
      <point x="994" y="1002" type="line"/>
      <point x="994" y="98" type="line"/>
      <point x="851" y="80" type="line"/>
      <point x="851" y="0" type="line"/>
      <point x="1292" y="0" type="line"/>
      <point x="1292" y="80" type="line"/>
      <point x="1154" y="98" type="line"/>
      <point x="1154" y="1192" type="line"/>
      <point x="1284" y="1210" type="line"/>
      <point x="1284" y="1292" type="line"/>
      <point x="851" y="1292" type="line"/>
      <point x="851" y="1210" type="line"/>
      <point x="994" y="1192" type="line"/>
      <point x="994" y="1142" type="line"/>
      <point x="519" y="512" type="line"/>
      <point x="380" y="300" type="line"/>
      <point x="380" y="1192" type="line"/>
      <point x="539" y="1212" type="line"/>
      <point x="539" y="1292" type="line"/>
    </contour>
  </outline>
</glyph>
<glyph name="ii-cy.sc" format="1">
  <advance width="1374"/>
  <outline>
    <contour>
      <point x="703" y="1272" type="move" name="top"/>
    </contour>
    <contour>
      <point x="1184" y="0" type="move" name="bottomright"/>
    </contour>
    <contour>
      <point x="92" y="1292" type="line"/>
      <point x="92" y="1210" type="line"/>
      <point x="221" y="1192" type="line"/>
      <point x="221" y="96" type="line"/>
      <point x="86" y="80" type="line"/>
      <point x="86" y="0" type="line"/>
      <point x="532" y="0" type="line"/>
      <point x="532" y="80" type="line"/>
      <point x="380" y="98" type="line"/>
      <point x="380" y="162" type="line"/>
      <point x="870" y="802" type="line"/>
      <point x="994" y="1002" type="line"/>
      <point x="994" y="98" type="line"/>
      <point x="851" y="80" type="line"/>
      <point x="851" y="0" type="line"/>
      <point x="1292" y="0" type="line"/>
      <point x="1292" y="80" type="line"/>
      <point x="1154" y="98" type="line"/>
      <point x="1154" y="1192" type="line"/>
      <point x="1284" y="1210" type="line"/>
      <point x="1284" y="1292" type="line"/>
      <point x="851" y="1292" type="line"/>
      <point x="851" y="1210" type="line"/>
      <point x="994" y="1192" type="line"/>
      <point x="994" y="1142" type="line"/>
      <point x="519" y="512" type="line"/>
      <point x="380" y="300" type="line"/>
      <point x="380" y="1192" type="line"/>
      <point x="539" y="1212" type="line"/>
      <point x="539" y="1292" type="line"/>
    </contour>
  </outline>
</glyph>
<glyph name="iigrave-cy.sc" format="1">
  <advance width="1374"/>
  <outline>
    <contour>
      <point x="751" y="1480" type="curve"/>
      <point x="753" y="1480" type="line"/>
      <point x="809" y="1534" type="line"/>
      <point x="541" y="1918" type="line"/>
      <point x="427" y="1810" type="line"/>
      <point x="471" y="1732"/>
      <point x="686" y="1510"/>
    </contour>
    <contour>
      <point x="92" y="1292" type="line"/>
      <point x="92" y="1210" type="line"/>
      <point x="221" y="1192" type="line"/>
      <point x="221" y="96" type="line"/>
      <point x="86" y="80" type="line"/>
      <point x="86" y="0" type="line"/>
      <point x="532" y="0" type="line"/>
      <point x="532" y="80" type="line"/>
      <point x="380" y="98" type="line"/>
      <point x="380" y="162" type="line"/>
      <point x="870" y="802" type="line"/>
      <point x="994" y="1002" type="line"/>
      <point x="994" y="98" type="line"/>
      <point x="851" y="80" type="line"/>
      <point x="851" y="0" type="line"/>
      <point x="1292" y="0" type="line"/>
      <point x="1292" y="80" type="line"/>
      <point x="1154" y="98" type="line"/>
      <point x="1154" y="1192" type="line"/>
      <point x="1284" y="1210" type="line"/>
      <point x="1284" y="1292" type="line"/>
      <point x="851" y="1292" type="line"/>
      <point x="851" y="1210" type="line"/>
      <point x="994" y="1192" type="line"/>
      <point x="994" y="1142" type="line"/>
      <point x="519" y="512" type="line"/>
      <point x="380" y="300" type="line"/>
      <point x="380" y="1192" type="line"/>
      <point x="539" y="1212" type="line"/>
      <point x="539" y="1292" type="line"/>
    </contour>
  </outline>
</glyph>
<glyph name="iishort-cy.sc" format="1">
  <advance width="1374"/>
  <outline>
    <contour>
      <point x="521" y="1803" type="curve" smooth="yes"/>
      <point x="402" y="1803" type="line"/>
      <point x="402" y="1792"/>
      <point x="401" y="1782"/>
      <point x="401" y="1773" type="curve" smooth="yes"/>
      <point x="401" y="1599"/>
      <point x="515" y="1464"/>
      <point x="704" y="1464" type="curve" smooth="yes"/>
      <point x="897" y="1464"/>
      <point x="1004" y="1598"/>
      <point x="1004" y="1773" type="curve" smooth="yes"/>
      <point x="1004" y="1782"/>
      <point x="1003" y="1792"/>
      <point x="1002" y="1803" type="curve"/>
      <point x="884" y="1803" type="line" smooth="yes"/>
      <point x="861" y="1803"/>
      <point x="858" y="1773"/>
      <point x="858" y="1742" type="curve" smooth="yes"/>
      <point x="858" y="1658"/>
      <point x="817" y="1549"/>
      <point x="706" y="1549" type="curve" smooth="yes"/>
      <point x="591" y="1549"/>
      <point x="547" y="1658"/>
      <point x="547" y="1742" type="curve" smooth="yes"/>
      <point x="547" y="1773"/>
      <point x="543" y="1803"/>
    </contour>
    <contour>
      <point x="92" y="1292" type="line"/>
      <point x="92" y="1210" type="line"/>
      <point x="221" y="1192" type="line"/>
      <point x="221" y="96" type="line"/>
      <point x="86" y="80" type="line"/>
      <point x="86" y="0" type="line"/>
      <point x="532" y="0" type="line"/>
      <point x="532" y="80" type="line"/>
      <point x="380" y="98" type="line"/>
      <point x="380" y="162" type="line"/>
      <point x="870" y="802" type="line"/>
      <point x="994" y="1002" type="line"/>
      <point x="994" y="98" type="line"/>
      <point x="851" y="80" type="line"/>
      <point x="851" y="0" type="line"/>
      <point x="1292" y="0" type="line"/>
      <point x="1292" y="80" type="line"/>
      <point x="1154" y="98" type="line"/>
      <point x="1154" y="1192" type="line"/>
      <point x="1284" y="1210" type="line"/>
      <point x="1284" y="1292" type="line"/>
      <point x="851" y="1292" type="line"/>
      <point x="851" y="1210" type="line"/>
      <point x="994" y="1192" type="line"/>
      <point x="994" y="1142" type="line"/>
      <point x="519" y="512" type="line"/>
      <point x="380" y="300" type="line"/>
      <point x="380" y="1192" type="line"/>
      <point x="539" y="1212" type="line"/>
      <point x="539" y="1292" type="line"/>
    </contour>
  </outline>
</glyph>
<glyph name="iishorttail-cy.sc" format="1">
  <advance width="1376"/>
  <outline>
    <contour>
      <point x="1157" y="0" type="move" name="bottomright"/>
    </contour>
    <contour>
      <point x="1316" y="0" type="curve"/>
      <point x="1316" y="96" type="line"/>
      <point x="1129" y="96" type="line"/>
      <point x="1116" y="0" type="line"/>
      <point x="1177" y="0" type="line"/>
      <point x="1167" y="-46"/>
      <point x="1111" y="-298"/>
      <point x="1101" y="-320" type="curve"/>
      <point x="1207" y="-320" type="line"/>
      <point x="1217" y="-300"/>
      <point x="1306" y="-12"/>
    </contour>
    <contour>
      <point x="520" y="1803" type="curve" smooth="yes"/>
      <point x="401" y="1803" type="line"/>
      <point x="401" y="1792"/>
      <point x="399" y="1782"/>
      <point x="399" y="1773" type="curve" smooth="yes"/>
      <point x="399" y="1599"/>
      <point x="514" y="1464"/>
      <point x="703" y="1464" type="curve" smooth="yes"/>
      <point x="896" y="1464"/>
      <point x="1003" y="1598"/>
      <point x="1003" y="1773" type="curve" smooth="yes"/>
      <point x="1003" y="1782"/>
      <point x="1001" y="1792"/>
      <point x="1001" y="1803" type="curve"/>
      <point x="882" y="1803" type="line" smooth="yes"/>
      <point x="860" y="1803"/>
      <point x="857" y="1773"/>
      <point x="857" y="1742" type="curve" smooth="yes"/>
      <point x="857" y="1658"/>
      <point x="816" y="1549"/>
      <point x="704" y="1549" type="curve" smooth="yes"/>
      <point x="589" y="1549"/>
      <point x="545" y="1658"/>
      <point x="545" y="1742" type="curve" smooth="yes"/>
      <point x="545" y="1773"/>
      <point x="542" y="1803"/>
    </contour>
    <contour>
      <point x="92" y="1292" type="line"/>
      <point x="92" y="1210" type="line"/>
      <point x="221" y="1192" type="line"/>
      <point x="221" y="96" type="line"/>
      <point x="86" y="80" type="line"/>
      <point x="86" y="0" type="line"/>
      <point x="532" y="0" type="line"/>
      <point x="532" y="80" type="line"/>
      <point x="380" y="98" type="line"/>
      <point x="380" y="162" type="line"/>
      <point x="870" y="802" type="line"/>
      <point x="994" y="1002" type="line"/>
      <point x="994" y="98" type="line"/>
      <point x="851" y="80" type="line"/>
      <point x="851" y="0" type="line"/>
      <point x="1292" y="0" type="line"/>
      <point x="1292" y="80" type="line"/>
      <point x="1154" y="98" type="line"/>
      <point x="1154" y="1192" type="line"/>
      <point x="1284" y="1210" type="line"/>
      <point x="1284" y="1292" type="line"/>
      <point x="851" y="1292" type="line"/>
      <point x="851" y="1210" type="line"/>
      <point x="994" y="1192" type="line"/>
      <point x="994" y="1142" type="line"/>
      <point x="519" y="512" type="line"/>
      <point x="380" y="300" type="line"/>
      <point x="380" y="1192" type="line"/>
      <point x="539" y="1212" type="line"/>
      <point x="539" y="1292" type="line"/>
    </contour>
  </outline>
</glyph>
<glyph name="kabashkir-cy.sc" format="1">
  <advance width="1386"/>
  <outline>
    <contour>
      <point x="857" y="-144" type="move" name="mark0"/>
    </contour>
    <contour>
      <point x="887" y="678" type="curve"/>
      <point x="1237" y="1192" type="line"/>
      <point x="1365" y="1210" type="line"/>
      <point x="1365" y="1292" type="line"/>
      <point x="973" y="1292" type="line"/>
      <point x="973" y="1210" type="line"/>
      <point x="1104" y="1192" type="line"/>
      <point x="780" y="694" type="line"/>
      <point x="634" y="694" type="line"/>
      <point x="634" y="1192" type="line"/>
      <point x="778" y="1210" type="line"/>
      <point x="778" y="1292" type="line"/>
      <point x="82" y="1292" type="line"/>
      <point x="64" y="866" type="line"/>
      <point x="173" y="866" type="line"/>
      <point x="219" y="1192" type="line"/>
      <point x="475" y="1208" type="line"/>
      <point x="475" y="98" type="line"/>
      <point x="333" y="80" type="line"/>
      <point x="333" y="0" type="line"/>
      <point x="780" y="0" type="line"/>
      <point x="780" y="80" type="line"/>
      <point x="634" y="96" type="line"/>
      <point x="634" y="602" type="line"/>
      <point x="738" y="602" type="line" smooth="yes"/>
      <point x="878" y="602"/>
      <point x="1081" y="0"/>
      <point x="1199" y="0" type="curve"/>
      <point x="1389" y="0" type="line"/>
      <point x="1389" y="80" type="line"/>
      <point x="1323" y="100" type="line" smooth="yes"/>
      <point x="1240" y="126"/>
      <point x="1046" y="586"/>
    </contour>
  </outline>
</glyph>
<glyph name="komide-cy.sc" format="1">
  <advance width="1053"/>
  <outline>
    <contour>
      <point x="664" y="0" type="curve"/>
      <point x="969" y="0" type="line"/>
      <point x="969" y="80" type="line"/>
      <point x="833" y="96" type="line"/>
      <point x="833" y="1198" type="line"/>
      <point x="965" y="1222" type="line"/>
      <point x="965" y="1292" type="line"/>
      <point x="504" y="1292" type="line"/>
      <point x="504" y="1222" type="line"/>
      <point x="673" y="1198" type="line"/>
      <point x="673" y="770" type="line"/>
      <point x="621" y="776"/>
      <point x="541" y="786"/>
      <point x="478" y="786" type="curve" smooth="yes"/>
      <point x="221" y="786"/>
      <point x="51" y="640"/>
      <point x="51" y="368" type="curve" smooth="yes"/>
      <point x="51" y="128"/>
      <point x="199" y="-14"/>
      <point x="459" y="-14" type="curve" smooth="yes"/>
      <point x="533" y="-14"/>
      <point x="601" y="-6"/>
    </contour>
    <contour>
      <point x="673" y="682" type="curve"/>
      <point x="673" y="98" type="line"/>
      <point x="631" y="88"/>
      <point x="563" y="84"/>
      <point x="507" y="84" type="curve" smooth="yes"/>
      <point x="325" y="84"/>
      <point x="221" y="186"/>
      <point x="221" y="376" type="curve" smooth="yes"/>
      <point x="221" y="592"/>
      <point x="326" y="696"/>
      <point x="503" y="696" type="curve" smooth="yes"/>
      <point x="585" y="696"/>
      <point x="626" y="690"/>
    </contour>
  </outline>
</glyph>
<glyph name="komilje-cy.sc" format="1">
  <advance width="1657"/>
  <outline>
    <contour>
      <point x="477" y="-144" type="move" name="mark0"/>
    </contour>
    <contour>
      <point x="1506" y="290" type="curve" smooth="yes"/>
      <point x="1506" y="602" type="line"/>
      <point x="1625" y="622" type="line"/>
      <point x="1625" y="712" type="line"/>
      <point x="1215" y="712" type="line"/>
      <point x="1215" y="622" type="line"/>
      <point x="1344" y="602" type="line"/>
      <point x="1344" y="318" type="line" smooth="yes"/>
      <point x="1344" y="158"/>
      <point x="1296" y="78"/>
      <point x="1151" y="78" type="curve" smooth="yes"/>
      <point x="1021" y="78"/>
      <point x="978" y="154"/>
      <point x="978" y="322" type="curve" smooth="yes"/>
      <point x="978" y="1192" type="line"/>
      <point x="1130" y="1210" type="line"/>
      <point x="1130" y="1292" type="line"/>
      <point x="201" y="1292" type="line"/>
      <point x="201" y="1210" type="line"/>
      <point x="385" y="1192" type="line"/>
      <point x="385" y="1038" type="line" smooth="yes"/>
      <point x="385" y="588"/>
      <point x="337" y="326"/>
      <point x="260" y="198" type="curve"/>
      <point x="236" y="154"/>
      <point x="206" y="130"/>
      <point x="163" y="130" type="curve" smooth="yes"/>
      <point x="98" y="130"/>
      <point x="64" y="134"/>
      <point x="42" y="138" type="curve"/>
      <point x="53" y="0" type="line"/>
      <point x="75" y="-4"/>
      <point x="115" y="-10"/>
      <point x="167" y="-10" type="curve" smooth="yes"/>
      <point x="243" y="-10"/>
      <point x="300" y="30"/>
      <point x="347" y="114" type="curve" smooth="yes"/>
      <point x="438" y="280"/>
      <point x="481" y="620"/>
      <point x="481" y="1028" type="curve" smooth="yes"/>
      <point x="481" y="1192" type="line"/>
      <point x="817" y="1192" type="line"/>
      <point x="817" y="298" type="line" smooth="yes"/>
      <point x="817" y="102"/>
      <point x="922" y="-14"/>
      <point x="1146" y="-14" type="curve" smooth="yes"/>
      <point x="1374" y="-14"/>
      <point x="1506" y="100"/>
    </contour>
  </outline>
</glyph>
<glyph name="lje-cy.sc" format="1">
  <advance width="1649"/>
  <outline>
    <contour>
      <point x="515" y="-144" type="move" name="mark0"/>
    </contour>
    <contour>
      <point x="974" y="716" type="curve"/>
      <point x="974" y="1192" type="line"/>
      <point x="1125" y="1210" type="line"/>
      <point x="1125" y="1292" type="line"/>
      <point x="227" y="1292" type="line"/>
      <point x="227" y="1210" type="line"/>
      <point x="384" y="1192" type="line"/>
      <point x="384" y="1038" type="line" smooth="yes"/>
      <point x="384" y="590"/>
      <point x="337" y="324"/>
      <point x="259" y="196" type="curve"/>
      <point x="233" y="148"/>
      <point x="202" y="130"/>
      <point x="163" y="130" type="curve" smooth="yes"/>
      <point x="97" y="130"/>
      <point x="64" y="134"/>
      <point x="42" y="138" type="curve"/>
      <point x="52" y="0" type="line"/>
      <point x="74" y="-4"/>
      <point x="116" y="-10"/>
      <point x="167" y="-10" type="curve" smooth="yes"/>
      <point x="246" y="-10"/>
      <point x="300" y="30"/>
      <point x="346" y="112" type="curve" smooth="yes"/>
      <point x="437" y="280"/>
      <point x="481" y="616"/>
      <point x="481" y="1028" type="curve" smooth="yes"/>
      <point x="481" y="1192" type="line"/>
      <point x="815" y="1192" type="line"/>
      <point x="814" y="98" type="line"/>
      <point x="647" y="80" type="line"/>
      <point x="647" y="0" type="line"/>
      <point x="898" y="0" type="line" smooth="yes"/>
      <point x="967" y="0"/>
      <point x="1128" y="-14"/>
      <point x="1167" y="-14" type="curve" smooth="yes"/>
      <point x="1421" y="-14"/>
      <point x="1595" y="122"/>
      <point x="1595" y="382" type="curve" smooth="yes"/>
      <point x="1595" y="604"/>
      <point x="1453" y="736"/>
      <point x="1186" y="736" type="curve" smooth="yes"/>
      <point x="1107" y="736"/>
      <point x="1007" y="724"/>
    </contour>
    <contour>
      <point x="974" y="88" type="curve"/>
      <point x="974" y="622" type="line"/>
      <point x="1001" y="628"/>
      <point x="1076" y="634"/>
      <point x="1142" y="634" type="curve" smooth="yes"/>
      <point x="1321" y="634"/>
      <point x="1425" y="550"/>
      <point x="1425" y="368" type="curve" smooth="yes"/>
      <point x="1425" y="178"/>
      <point x="1324" y="72"/>
      <point x="1140" y="72" type="curve" smooth="yes"/>
      <point x="1061" y="72"/>
      <point x="1020" y="78"/>
    </contour>
  </outline>
</glyph>
<glyph name="pe-cy.sc" format="1">
  <advance width="1295"/>
  <outline>
    <contour>
      <point x="906" y="0" type="move" name="bottomright"/>
    </contour>
    <contour>
      <point x="82" y="1292" type="line"/>
      <point x="82" y="1210" type="line"/>
      <point x="221" y="1192" type="line"/>
      <point x="221" y="96" type="line"/>
      <point x="90" y="80" type="line"/>
      <point x="90" y="0" type="line"/>
      <point x="534" y="0" type="line"/>
      <point x="534" y="80" type="line"/>
      <point x="382" y="96" type="line"/>
      <point x="382" y="1194" type="line"/>
      <point x="914" y="1194" type="line"/>
      <point x="914" y="98" type="line"/>
      <point x="778" y="80" type="line"/>
      <point x="778" y="0" type="line"/>
      <point x="1227" y="0" type="line"/>
      <point x="1227" y="80" type="line"/>
      <point x="1075" y="98" type="line"/>
      <point x="1075" y="1190" type="line"/>
      <point x="1214" y="1212" type="line"/>
      <point x="1214" y="1292" type="line"/>
    </contour>
  </outline>
</glyph>
<glyph name="pemiddlehook-cy.sc" format="1">
  <advance width="1759"/>
  <outline>
    <contour>
      <point x="660" y="-144" type="move" name="mark0"/>
    </contour>
    <contour>
      <point x="1075" y="684" type="curve"/>
      <point x="1075" y="1190" type="line"/>
      <point x="1214" y="1212" type="line"/>
      <point x="1214" y="1292" type="line"/>
      <point x="82" y="1292" type="line"/>
      <point x="82" y="1210" type="line"/>
      <point x="221" y="1192" type="line"/>
      <point x="221" y="96" type="line"/>
      <point x="90" y="80" type="line"/>
      <point x="90" y="0" type="line"/>
      <point x="534" y="0" type="line"/>
      <point x="534" y="80" type="line"/>
      <point x="382" y="96" type="line"/>
      <point x="382" y="1194" type="line"/>
      <point x="914" y="1194" type="line"/>
      <point x="914" y="98" type="line"/>
      <point x="778" y="80" type="line"/>
      <point x="778" y="0" type="line"/>
      <point x="1227" y="0" type="line"/>
      <point x="1227" y="80" type="line"/>
      <point x="1075" y="98" type="line"/>
      <point x="1075" y="592" type="line"/>
      <point x="1129" y="616"/>
      <point x="1196" y="634"/>
      <point x="1288" y="634" type="curve" smooth="yes"/>
      <point x="1467" y="634"/>
      <point x="1525" y="522"/>
      <point x="1525" y="286" type="curve" smooth="yes"/>
      <point x="1525" y="-60"/>
      <point x="1458" y="-240"/>
      <point x="1290" y="-240" type="curve" smooth="yes"/>
      <point x="1256" y="-240"/>
      <point x="1224" y="-240"/>
      <point x="1208" y="-234" type="curve"/>
      <point x="1212" y="-330" type="line"/>
      <point x="1233" y="-340"/>
      <point x="1279" y="-346"/>
      <point x="1312" y="-346" type="curve" smooth="yes"/>
      <point x="1559" y="-346"/>
      <point x="1690" y="-66"/>
      <point x="1690" y="298" type="curve" smooth="yes"/>
      <point x="1690" y="560"/>
      <point x="1620" y="742"/>
      <point x="1327" y="742" type="curve" smooth="yes"/>
      <point x="1232" y="742"/>
      <point x="1120" y="710"/>
    </contour>
  </outline>
</glyph>
<glyph name="shcha-cy.sc" format="1">
  <advance width="1796"/>
  <outline>
    <contour>
      <point x="1752" y="98" type="curve"/>
      <point x="1556" y="98" type="line"/>
      <point x="1556" y="1192" type="line"/>
      <point x="1691" y="1210" type="line"/>
      <point x="1691" y="1292" type="line"/>
      <point x="1274" y="1292" type="line"/>
      <point x="1274" y="1210" type="line"/>
      <point x="1396" y="1192" type="line"/>
      <point x="1396" y="96" type="line"/>
      <point x="970" y="96" type="line"/>
      <point x="970" y="1192" type="line"/>
      <point x="1098" y="1210" type="line"/>
      <point x="1098" y="1292" type="line"/>
      <point x="690" y="1292" type="line"/>
      <point x="690" y="1210" type="line"/>
      <point x="814" y="1192" type="line"/>
      <point x="814" y="96" type="line"/>
      <point x="380" y="96" type="line"/>
      <point x="380" y="1192" type="line"/>
      <point x="528" y="1210" type="line"/>
      <point x="528" y="1292" type="line"/>
      <point x="85" y="1292" type="line"/>
      <point x="85" y="1210" type="line"/>
      <point x="221" y="1192" type="line"/>
      <point x="221" y="98" type="line"/>
      <point x="67" y="80" type="line"/>
      <point x="67" y="0" type="line"/>
      <point x="1587" y="0" type="line"/>
      <point x="1593" y="-16"/>
      <point x="1608" y="-288"/>
      <point x="1609" y="-320" type="curve"/>
      <point x="1710" y="-320" type="line"/>
      <point x="1724" y="-186"/>
      <point x="1741" y="-22"/>
    </contour>
  </outline>
</glyph>
<glyph name="softsign-cy.sc" format="1">
  <advance width="1056"/>
  <outline>
    <contour>
      <point x="380" y="784" type="curve"/>
      <point x="380" y="1192" type="line"/>
      <point x="537" y="1214" type="line"/>
      <point x="537" y="1292" type="line"/>
      <point x="87" y="1292" type="line"/>
      <point x="87" y="1214" type="line"/>
      <point x="220" y="1192" type="line"/>
      <point x="220" y="96" type="line"/>
      <point x="82" y="80" type="line"/>
      <point x="82" y="0" type="line"/>
      <point x="301" y="0" type="line"/>
      <point x="380" y="0"/>
      <point x="520" y="-14"/>
      <point x="572" y="-14" type="curve" smooth="yes"/>
      <point x="822" y="-14"/>
      <point x="1002" y="130"/>
      <point x="1002" y="406" type="curve" smooth="yes"/>
      <point x="1002" y="644"/>
      <point x="860" y="786"/>
      <point x="594" y="786" type="curve" smooth="yes"/>
      <point x="528" y="786"/>
      <point x="443" y="784"/>
    </contour>
    <contour>
      <point x="380" y="90" type="curve"/>
      <point x="380" y="688" type="line"/>
      <point x="432" y="688"/>
      <point x="496" y="688"/>
      <point x="548" y="688" type="curve" smooth="yes"/>
      <point x="727" y="688"/>
      <point x="833" y="594"/>
      <point x="833" y="396" type="curve" smooth="yes"/>
      <point x="833" y="188"/>
      <point x="730" y="76"/>
      <point x="546" y="76" type="curve" smooth="yes"/>
      <point x="463" y="76"/>
      <point x="423" y="82"/>
    </contour>
  </outline>
</glyph>
<glyph name="ushort-cy.sc" format="1">
  <advance width="1086"/>
  <outline>
    <contour>
      <point x="363" y="1803" type="curve" smooth="yes"/>
      <point x="244" y="1803" type="line"/>
      <point x="244" y="1792"/>
      <point x="243" y="1782"/>
      <point x="243" y="1773" type="curve" smooth="yes"/>
      <point x="243" y="1599"/>
      <point x="357" y="1464"/>
      <point x="546" y="1464" type="curve" smooth="yes"/>
      <point x="739" y="1464"/>
      <point x="846" y="1598"/>
      <point x="846" y="1773" type="curve" smooth="yes"/>
      <point x="846" y="1782"/>
      <point x="844" y="1792"/>
      <point x="844" y="1803" type="curve"/>
      <point x="726" y="1803" type="line" smooth="yes"/>
      <point x="703" y="1803"/>
      <point x="700" y="1773"/>
      <point x="700" y="1742" type="curve" smooth="yes"/>
      <point x="700" y="1658"/>
      <point x="659" y="1549"/>
      <point x="548" y="1549" type="curve" smooth="yes"/>
      <point x="433" y="1549"/>
      <point x="389" y="1658"/>
      <point x="389" y="1742" type="curve" smooth="yes"/>
      <point x="389" y="1773"/>
      <point x="385" y="1803"/>
    </contour>
    <contour>
      <point x="640" y="266" type="curve"/>
      <point x="986" y="1192" type="line"/>
      <point x="1069" y="1210" type="line"/>
      <point x="1069" y="1292" type="line"/>
      <point x="724" y="1292" type="line"/>
      <point x="724" y="1210" type="line"/>
      <point x="866" y="1192" type="line"/>
      <point x="655" y="574" type="line"/>
      <point x="601" y="410" type="line"/>
      <point x="550" y="572" type="line"/>
      <point x="282" y="1192" type="line"/>
      <point x="444" y="1210" type="line"/>
      <point x="444" y="1292" type="line"/>
      <point x="17" y="1292" type="line"/>
      <point x="17" y="1210" type="line"/>
      <point x="105" y="1192" type="line"/>
      <point x="517" y="280" type="line"/>
      <point x="481" y="166"/>
      <point x="442" y="124"/>
      <point x="343" y="124" type="curve" smooth="yes"/>
      <point x="325" y="124"/>
      <point x="238" y="126"/>
      <point x="229" y="128" type="curve"/>
      <point x="229" y="10" type="line"/>
      <point x="262" y="-6"/>
      <point x="315" y="-20"/>
      <point x="373" y="-20" type="curve" smooth="yes"/>
      <point x="546" y="-20"/>
      <point x="596" y="162"/>
    </contour>
  </outline>
</glyph>
<glyph name="yat-cy.sc" format="1">
  <advance width="1219"/>
  <outline>
    <contour>
      <point x="555" y="688" type="curve"/>
      <point x="555" y="1040" type="line"/>
      <point x="824" y="1020" type="line"/>
      <point x="861" y="880" type="line"/>
      <point x="965" y="880" type="line"/>
      <point x="946" y="1122" type="line"/>
      <point x="555" y="1122" type="line"/>
      <point x="555" y="1292" type="line"/>
      <point x="703" y="1316" type="line"/>
      <point x="703" y="1390" type="line"/>
      <point x="251" y="1390" type="line"/>
      <point x="251" y="1316" type="line"/>
      <point x="394" y="1294" type="line"/>
      <point x="394" y="1122" type="line"/>
      <point x="16" y="1122" type="line"/>
      <point x="-4" y="880" type="line"/>
      <point x="99" y="880" type="line"/>
      <point x="136" y="1020" type="line"/>
      <point x="394" y="1040" type="line"/>
      <point x="394" y="96" type="line"/>
      <point x="241" y="80" type="line"/>
      <point x="241" y="0" type="line"/>
      <point x="480" y="0" type="line" smooth="yes"/>
      <point x="547" y="0"/>
      <point x="690" y="-14"/>
      <point x="733" y="-14" type="curve" smooth="yes"/>
      <point x="988" y="-14"/>
      <point x="1165" y="128"/>
      <point x="1165" y="364" type="curve" smooth="yes"/>
      <point x="1165" y="552"/>
      <point x="1047" y="708"/>
      <point x="758" y="708" type="curve" smooth="yes"/>
      <point x="680" y="708"/>
      <point x="593" y="696"/>
    </contour>
    <contour>
      <point x="555" y="90" type="curve"/>
      <point x="555" y="606" type="line"/>
      <point x="586" y="614"/>
      <point x="659" y="616"/>
      <point x="714" y="616" type="curve" smooth="yes"/>
      <point x="887" y="616"/>
      <point x="995" y="512"/>
      <point x="995" y="350" type="curve" smooth="yes"/>
      <point x="995" y="178"/>
      <point x="887" y="74"/>
      <point x="707" y="74" type="curve" smooth="yes"/>
      <point x="633" y="74"/>
      <point x="593" y="80"/>
    </contour>
  </outline>
</glyph>
<glyph name="yerudieresis-cy.sc" format="1">
  <advance width="1705"/>
  <outline>
    <contour>
      <point x="1030" y="1486" type="curve"/>
      <point x="1107" y="1486"/>
      <point x="1141" y="1546"/>
      <point x="1141" y="1616" type="curve" smooth="yes"/>
      <point x="1141" y="1674"/>
      <point x="1108" y="1732"/>
      <point x="1046" y="1732" type="curve" smooth="yes"/>
      <point x="975" y="1732"/>
      <point x="940" y="1666"/>
      <point x="940" y="1600" type="curve" smooth="yes"/>
      <point x="940" y="1536"/>
      <point x="975" y="1486"/>
    </contour>
    <contour>
      <point x="656" y="1486" type="curve" smooth="yes"/>
      <point x="731" y="1486"/>
      <point x="765" y="1546"/>
      <point x="765" y="1616" type="curve" smooth="yes"/>
      <point x="765" y="1674"/>
      <point x="733" y="1732"/>
      <point x="670" y="1732" type="curve"/>
      <point x="598" y="1732"/>
      <point x="564" y="1666"/>
      <point x="564" y="1600" type="curve" smooth="yes"/>
      <point x="564" y="1536"/>
      <point x="598" y="1486"/>
    </contour>
    <contour>
      <point x="380" y="784" type="curve"/>
      <point x="380" y="1192" type="line"/>
      <point x="537" y="1214" type="line"/>
      <point x="537" y="1292" type="line"/>
      <point x="87" y="1292" type="line"/>
      <point x="87" y="1214" type="line"/>
      <point x="220" y="1192" type="line"/>
      <point x="220" y="96" type="line"/>
      <point x="82" y="80" type="line"/>
      <point x="82" y="0" type="line"/>
      <point x="301" y="0" type="line" smooth="yes"/>
      <point x="380" y="0"/>
      <point x="520" y="-14"/>
      <point x="572" y="-14" type="curve" smooth="yes"/>
      <point x="822" y="-14"/>
      <point x="1002" y="130"/>
      <point x="1002" y="406" type="curve" smooth="yes"/>
      <point x="1002" y="644"/>
      <point x="860" y="786"/>
      <point x="594" y="786" type="curve" smooth="yes"/>
      <point x="528" y="786"/>
      <point x="443" y="784"/>
    </contour>
    <contour>
      <point x="380" y="90" type="curve"/>
      <point x="380" y="688" type="line"/>
      <point x="432" y="688"/>
      <point x="496" y="688"/>
      <point x="548" y="688" type="curve" smooth="yes"/>
      <point x="727" y="688"/>
      <point x="833" y="594"/>
      <point x="833" y="396" type="curve" smooth="yes"/>
      <point x="833" y="188"/>
      <point x="730" y="76"/>
      <point x="546" y="76" type="curve" smooth="yes"/>
      <point x="463" y="76"/>
      <point x="423" y="82"/>
    </contour>
    <contour>
      <point x="1141" y="1292" type="line"/>
      <point x="1141" y="1210" type="line"/>
      <point x="1293" y="1192" type="line"/>
      <point x="1293" y="98" type="line"/>
      <point x="1141" y="80" type="line"/>
      <point x="1141" y="0" type="line"/>
      <point x="1610" y="0" type="line"/>
      <point x="1610" y="80" type="line"/>
      <point x="1456" y="96" type="line"/>
      <point x="1456" y="1192" type="line"/>
      <point x="1610" y="1210" type="line"/>
      <point x="1610" y="1292" type="line"/>
    </contour>
  </outline>
</glyph>
<glyph name="yusbig-cy.sc" format="1">
  <advance width="1702"/>
  <outline>
    <contour>
      <point x="666" y="600" type="curve" smooth="yes"/>
      <point x="774" y="600" type="line"/>
      <point x="774" y="98" type="line"/>
      <point x="637" y="80" type="line"/>
      <point x="637" y="0" type="line"/>
      <point x="1071" y="0" type="line"/>
      <point x="1071" y="80" type="line"/>
      <point x="928" y="98" type="line"/>
      <point x="928" y="600" type="line"/>
      <point x="1035" y="600" type="line" smooth="yes"/>
      <point x="1175" y="600"/>
      <point x="1374" y="0"/>
      <point x="1489" y="0" type="curve" smooth="yes"/>
      <point x="1682" y="0" type="line"/>
      <point x="1682" y="80" type="line"/>
      <point x="1618" y="98" type="line" smooth="yes"/>
      <point x="1530" y="124"/>
      <point x="1318" y="682"/>
      <point x="1115" y="682" type="curve" smooth="yes"/>
      <point x="970" y="682" type="line"/>
      <point x="1376" y="1214" type="line"/>
      <point x="1368" y="1292" type="line"/>
      <point x="334" y="1292" type="line"/>
      <point x="326" y="1214" type="line"/>
      <point x="731" y="682" type="line"/>
      <point x="586" y="682" type="line" smooth="yes"/>
      <point x="396" y="682"/>
      <point x="171" y="124"/>
      <point x="84" y="98" type="curve" smooth="yes"/>
      <point x="21" y="80" type="line"/>
      <point x="21" y="0" type="line"/>
      <point x="212" y="0" type="line" smooth="yes"/>
      <point x="328" y="0"/>
      <point x="528" y="600"/>
    </contour>
    <contour>
      <point x="492" y="1184" type="line"/>
      <point x="1210" y="1184" type="line"/>
      <point x="852" y="680" type="line"/>
    </contour>
  </outline>
</glyph>
<glyph name="zedieresis-cy.sc" format="1">
  <advance width="989"/>
  <outline>
    <contour>
      <point x="673" y="1486" type="curve"/>
      <point x="750" y="1486"/>
      <point x="784" y="1546"/>
      <point x="784" y="1616" type="curve" smooth="yes"/>
      <point x="784" y="1674"/>
      <point x="751" y="1732"/>
      <point x="689" y="1732" type="curve" smooth="yes"/>
      <point x="618" y="1732"/>
      <point x="583" y="1666"/>
      <point x="583" y="1600" type="curve" smooth="yes"/>
      <point x="583" y="1536"/>
      <point x="618" y="1486"/>
    </contour>
    <contour>
      <point x="299" y="1486" type="curve" smooth="yes"/>
      <point x="374" y="1486"/>
      <point x="408" y="1546"/>
      <point x="408" y="1616" type="curve" smooth="yes"/>
      <point x="408" y="1674"/>
      <point x="376" y="1732"/>
      <point x="313" y="1732" type="curve"/>
      <point x="241" y="1732"/>
      <point x="207" y="1666"/>
      <point x="207" y="1600" type="curve" smooth="yes"/>
      <point x="207" y="1536"/>
      <point x="241" y="1486"/>
    </contour>
    <contour>
      <point x="126" y="1250" type="curve"/>
      <point x="142" y="988" type="line"/>
      <point x="240" y="988" type="line"/>
      <point x="269" y="1146" type="line"/>
      <point x="293" y="1188"/>
      <point x="366" y="1216"/>
      <point x="460" y="1216" type="curve" smooth="yes"/>
      <point x="598" y="1216"/>
      <point x="693" y="1154"/>
      <point x="694" y="992" type="curve" smooth="yes"/>
      <point x="694" y="802"/>
      <point x="555" y="712"/>
      <point x="423" y="712" type="curve" smooth="yes"/>
      <point x="330" y="712" type="line"/>
      <point x="330" y="620" type="line"/>
      <point x="443" y="620" type="line" smooth="yes"/>
      <point x="663" y="620"/>
      <point x="716" y="486"/>
      <point x="716" y="364" type="curve" smooth="yes"/>
      <point x="716" y="174"/>
      <point x="636" y="84"/>
      <point x="491" y="84" type="curve" smooth="yes"/>
      <point x="385" y="84"/>
      <point x="311" y="104"/>
      <point x="268" y="130" type="curve"/>
      <point x="223" y="350" type="line"/>
      <point x="147" y="350" type="line"/>
      <point x="119" y="56" type="line"/>
      <point x="179" y="34"/>
      <point x="297" y="-10"/>
      <point x="458" y="-10" type="curve" smooth="yes"/>
      <point x="777" y="-10"/>
      <point x="903" y="140"/>
      <point x="903" y="378" type="curve" smooth="yes"/>
      <point x="903" y="546"/>
      <point x="797" y="676"/>
      <point x="589" y="682" type="curve"/>
      <point x="729" y="712"/>
      <point x="866" y="818"/>
      <point x="866" y="1014" type="curve" smooth="yes"/>
      <point x="866" y="1214"/>
      <point x="713" y="1306"/>
      <point x="449" y="1306" type="curve" smooth="yes"/>
      <point x="328" y="1306"/>
      <point x="194" y="1256"/>
    </contour>
  </outline>
</glyph>
<glyph name="zhe-cy.sc" format="1">
  <advance width="1692"/>
  <outline>
    <contour>
      <point x="846" y="1272" type="move" name="top"/>
    </contour>
    <contour>
      <point x="1656" y="0" type="move" name="bottomright"/>
    </contour>
    <contour>
      <point x="1171" y="668" type="curve"/>
      <point x="1527" y="1192" type="line"/>
      <point x="1655" y="1210" type="line"/>
      <point x="1655" y="1292" type="line"/>
      <point x="1266" y="1292" type="line"/>
      <point x="1266" y="1210" type="line"/>
      <point x="1394" y="1190" type="line"/>
      <point x="1068" y="680" type="line"/>
      <point x="924" y="680" type="line"/>
      <point x="924" y="1192" type="line"/>
      <point x="1063" y="1210" type="line"/>
      <point x="1063" y="1292" type="line"/>
      <point x="634" y="1292" type="line"/>
      <point x="634" y="1210" type="line"/>
      <point x="770" y="1192" type="line"/>
      <point x="770" y="680" type="line"/>
      <point x="625" y="680" type="line"/>
      <point x="296" y="1192" type="line"/>
      <point x="426" y="1210" type="line"/>
      <point x="426" y="1292" type="line"/>
      <point x="38" y="1292" type="line"/>
      <point x="38" y="1210" type="line"/>
      <point x="164" y="1192" type="line"/>
      <point x="520" y="672" type="line"/>
      <point x="355" y="600"/>
      <point x="169" y="122"/>
      <point x="81" y="98" type="curve" smooth="yes"/>
      <point x="16" y="80" type="line"/>
      <point x="16" y="0" type="line"/>
      <point x="200" y="0" type="line" smooth="yes"/>
      <point x="316" y="0"/>
      <point x="523" y="600"/>
      <point x="661" y="600" type="curve" smooth="yes"/>
      <point x="770" y="600" type="line"/>
      <point x="770" y="98" type="line"/>
      <point x="632" y="80" type="line"/>
      <point x="632" y="0" type="line"/>
      <point x="1066" y="0" type="line"/>
      <point x="1066" y="80" type="line"/>
      <point x="924" y="98" type="line"/>
      <point x="924" y="600" type="line"/>
      <point x="1031" y="600" type="line" smooth="yes"/>
      <point x="1170" y="600"/>
      <point x="1374" y="0"/>
      <point x="1490" y="0" type="curve"/>
      <point x="1677" y="0" type="line"/>
      <point x="1677" y="80" type="line"/>
      <point x="1611" y="98" type="line" smooth="yes"/>
      <point x="1522" y="122"/>
      <point x="1336" y="596"/>
    </contour>
  </outline>
</glyph>
<glyph name="zhebreve-cy.sc" format="1">
  <advance width="1692"/>
  <outline>
    <contour>
      <point x="664" y="1803" type="curve" smooth="yes"/>
      <point x="546" y="1803" type="line"/>
      <point x="546" y="1792"/>
      <point x="544" y="1782"/>
      <point x="544" y="1773" type="curve" smooth="yes"/>
      <point x="544" y="1599"/>
      <point x="658" y="1464"/>
      <point x="847" y="1464" type="curve" smooth="yes"/>
      <point x="1040" y="1464"/>
      <point x="1147" y="1598"/>
      <point x="1147" y="1773" type="curve" smooth="yes"/>
      <point x="1147" y="1782"/>
      <point x="1146" y="1792"/>
      <point x="1146" y="1803" type="curve"/>
      <point x="1027" y="1803" type="line" smooth="yes"/>
      <point x="1005" y="1803"/>
      <point x="1001" y="1773"/>
      <point x="1001" y="1742" type="curve" smooth="yes"/>
      <point x="1001" y="1658"/>
      <point x="961" y="1549"/>
      <point x="849" y="1549" type="curve" smooth="yes"/>
      <point x="734" y="1549"/>
      <point x="690" y="1658"/>
      <point x="690" y="1742" type="curve" smooth="yes"/>
      <point x="690" y="1773"/>
      <point x="687" y="1803"/>
    </contour>
    <contour>
      <point x="1171" y="668" type="curve"/>
      <point x="1527" y="1192" type="line"/>
      <point x="1655" y="1210" type="line"/>
      <point x="1655" y="1292" type="line"/>
      <point x="1266" y="1292" type="line"/>
      <point x="1266" y="1210" type="line"/>
      <point x="1394" y="1190" type="line"/>
      <point x="1068" y="680" type="line"/>
      <point x="924" y="680" type="line"/>
      <point x="924" y="1192" type="line"/>
      <point x="1063" y="1210" type="line"/>
      <point x="1063" y="1292" type="line"/>
      <point x="634" y="1292" type="line"/>
      <point x="634" y="1210" type="line"/>
      <point x="770" y="1192" type="line"/>
      <point x="770" y="680" type="line"/>
      <point x="625" y="680" type="line"/>
      <point x="296" y="1192" type="line"/>
      <point x="426" y="1210" type="line"/>
      <point x="426" y="1292" type="line"/>
      <point x="38" y="1292" type="line"/>
      <point x="38" y="1210" type="line"/>
      <point x="164" y="1192" type="line"/>
      <point x="520" y="672" type="line"/>
      <point x="355" y="600"/>
      <point x="169" y="122"/>
      <point x="81" y="98" type="curve" smooth="yes"/>
      <point x="16" y="80" type="line"/>
      <point x="16" y="0" type="line"/>
      <point x="200" y="0" type="line" smooth="yes"/>
      <point x="316" y="0"/>
      <point x="523" y="600"/>
      <point x="661" y="600" type="curve" smooth="yes"/>
      <point x="770" y="600" type="line"/>
      <point x="770" y="98" type="line"/>
      <point x="632" y="80" type="line"/>
      <point x="632" y="0" type="line"/>
      <point x="1066" y="0" type="line"/>
      <point x="1066" y="80" type="line"/>
      <point x="924" y="98" type="line"/>
      <point x="924" y="600" type="line"/>
      <point x="1031" y="600" type="line" smooth="yes"/>
      <point x="1170" y="600"/>
      <point x="1374" y="0"/>
      <point x="1490" y="0" type="curve"/>
      <point x="1677" y="0" type="line"/>
      <point x="1677" y="80" type="line"/>
      <point x="1611" y="98" type="line" smooth="yes"/>
      <point x="1522" y="122"/>
      <point x="1336" y="596"/>
    </contour>
  </outline>
</glyph>
